PathFileType	4	(X/Y/Z)	D:\TRACE\v60_Jaco2_6-2-23\BothDRS_Motion3_4-platform.trc
DataRate	CameraRate	NumFrames	NumMarkers	Units	OrigDataRate	OrigDataStartFrame	OrigNumFrames
100.00	100.00	      73	5	mm	100.00	876	      7000
Frame#	Time	Left_Front			Right_Front			Left_Aft			Right_Aft			Post			
		X1	Y1	Z1	X2	Y2	Z2	X3	Y3	Z3	X4	Y4	Z4	X5	Y5	Z5	

876	8.750	-762.38666	-13.28934	-656.06964	808.24341	-14.46527	-633.03534	-692.85913	27.01849	480.35901	721.31091	27.12168	583.03632	33.78275	1273.09875	-1012.21973	
877	8.760	-761.96387	-12.95060	-655.73193	808.52094	-14.41154	-633.04541	-692.54376	27.07026	480.38550	721.58362	27.17779	583.08783	33.91072	1273.07776	-1012.28210	
878	8.770	-761.74969	-12.94524	-655.70203	808.93634	-14.42445	-632.87946	-692.22192	27.00898	480.42783	721.44934	26.99961	583.23779	34.10564	1273.08838	-1012.37024	
879	8.780	-761.55127	-12.93741	-655.70898	809.08215	-14.51405	-633.03546	-691.94916	26.94252	480.40036	721.92566	27.02533	583.05634	34.47254	1273.13525	-1012.58990	
880	8.790	-761.32788	-12.91271	-655.72662	809.47266	-14.43044	-632.94342	-691.78638	26.92865	480.39145	722.14301	27.04782	583.05908	34.79695	1273.22058	-1012.78735	
881	8.800	-761.09485	-12.93171	-655.55157	809.84003	-14.57967	-633.28943	-691.67615	26.92747	480.35706	722.50366	26.84536	582.99005	34.86493	1273.20935	-1012.89984	
882	8.810	-760.70703	-13.09102	-655.42102	809.93158	-14.37607	-632.83331	-691.53522	26.91158	480.32635	722.77948	26.76919	582.99286	35.07959	1273.18152	-1013.08392	
883	8.820	-760.34332	-13.17581	-655.37518	810.18030	-14.33818	-632.76526	-691.25879	26.90046	480.30774	723.04858	26.90862	583.18927	35.40780	1273.11450	-1013.32025	
884	8.830	-760.12665	-13.17940	-655.38239	810.35840	-14.34530	-632.81512	-690.90710	26.90265	480.27386	723.23804	26.86059	583.17627	35.76023	1273.09619	-1013.40540	
885	8.840	-759.95190	-13.09537	-655.37415	810.59668	-14.39875	-632.80450	-690.68402	26.88569	480.29767	723.45331	26.89450	583.16797	35.94688	1273.11804	-1013.39600	
886	8.850	-759.67474	-13.08015	-655.41669	811.15332	-14.49512	-633.24023	-690.52148	26.92078	480.31030	723.69427	26.95262	583.24127	36.15095	1273.06177	-1013.27332	
887	8.860	-759.48724	-13.08128	-655.45184	811.29858	-14.55571	-633.20691	-690.30078	26.87912	480.32196	723.89673	26.95662	583.24841	36.34149	1273.04138	-1013.01172	
888	8.870	-759.18298	-13.11772	-655.44324	811.50708	-14.54578	-633.19452	-690.04016	26.85114	480.33817	724.25134	26.98344	583.22943	36.65186	1273.02051	-1012.74353	
889	8.880	-758.98120	-13.10648	-655.48688	811.75745	-14.61579	-633.19464	-689.53052	26.62971	480.23590	724.45203	26.94826	583.21344	36.88257	1273.09229	-1012.53088	
890	8.890	-758.86365	-12.99158	-655.50714	811.89154	-14.62392	-633.26489	-689.41394	26.72214	480.23724	724.60913	26.98404	583.16168	37.12032	1273.13391	-1012.35852	
891	8.900	-758.29590	-13.09980	-654.96191	811.90338	-14.42281	-632.97833	-689.23181	26.76442	480.13791	724.84772	27.07607	583.17419	37.29678	1273.13489	-1012.29437	
892	8.910	-758.65619	-12.79879	-655.57996	812.07013	-14.43514	-632.92969	-689.23676	26.80222	480.19894	724.99194	27.13626	583.04608	37.39405	1273.16064	-1012.22412	
893	8.920	-758.62518	-12.72416	-655.63544	812.17249	-14.35585	-632.87054	-689.04309	26.66510	480.29254	725.15063	27.16775	583.07703	37.47635	1273.18054	-1012.29614	
894	8.930	-758.48889	-12.60572	-655.71228	812.32452	-14.33134	-632.87524	-689.15002	27.11074	480.07355	725.11578	27.09011	582.68927	37.59926	1273.25916	-1012.36993	
895	8.940	-758.29272	-12.64638	-655.70770	812.38147	-14.22840	-632.83685	-688.95526	27.10111	480.12476	725.17761	26.99707	582.54346	37.81806	1273.27222	-1012.41217	
896	8.950	-758.08002	-12.67080	-655.58716	812.50128	-14.24670	-632.84167	-688.72510	27.06448	480.19666	725.35187	26.90853	582.65845	38.00682	1273.29407	-1012.46838	
897	8.960	-757.92676	-12.65312	-655.58392	812.58087	-14.18539	-632.84308	-688.64923	27.07565	480.22662	725.53705	26.81003	582.77271	38.17278	1273.29578	-1012.53650	
898	8.970	-757.79834	-12.53447	-655.57208	812.74023	-14.08727	-632.80463	-688.57172	27.03041	480.24832	725.69592	26.69342	582.74255	38.31595	1273.34131	-1012.56641	
899	8.980	-757.75922	-12.52294	-655.62256	812.92358	-14.10996	-632.79767	-688.44763	27.01020	480.27774	725.92407	26.58404	582.79626	38.30936	1273.46069	-1012.55554	
900	8.990	-757.66101	-12.62673	-655.44708	813.05109	-14.08416	-632.81311	-688.33075	27.04461	480.37723	726.03070	26.48116	582.89264	38.39787	1273.64160	-1012.49768	
901	9.000	-757.60065	-12.60966	-655.40491	813.23962	-13.87465	-632.84015	-688.15320	26.91319	480.40707	726.14465	26.22434	582.91467	38.53940	1273.76978	-1012.38428	
902	9.010	-757.52008	-12.41457	-655.32928	813.33972	-13.79951	-632.75488	-688.03027	26.76246	480.44046	726.14435	26.05303	582.89447	38.55642	1273.91821	-1012.14764	
903	9.020	-757.32916	-12.41079	-655.17755	813.49786	-13.71129	-632.62585	-687.91479	26.73202	480.50632	726.30811	26.30363	583.40479	38.60424	1274.16602	-1011.88257	
904	9.030	-757.24011	-12.27863	-655.21124	813.57324	-13.47151	-632.59760	-687.82574	26.71420	480.54678	726.42413	26.26391	583.43140	38.84903	1274.48352	-1011.42126	
905	9.040	-757.22955	-11.96747	-655.30127	813.62390	-13.27722	-632.62390	-687.66071	26.55758	480.52969	726.47772	26.25537	583.47540	38.78906	1274.71716	-1010.79028	
906	9.050	-757.17365	-11.80746	-655.33447	813.72784	-13.25443	-632.66724	-687.59082	26.42787	480.45572	726.51996	26.19523	583.45941	39.06278	1274.76038	-1010.42651	
907	9.060	-757.03754	-11.73985	-655.09564	813.72650	-13.25236	-632.60400	-687.55536	26.33928	480.47202	726.49634	26.08842	583.49188	39.09554	1274.80298	-1010.09668	
908	9.070	-756.95313	-11.59325	-654.98181	813.75049	-13.15584	-632.59137	-687.53186	26.14824	480.68661	726.48737	26.03868	583.54858	38.93999	1274.82410	-1009.61444	
909	9.080	-756.87952	-11.52659	-654.96399	813.91785	-13.04169	-632.99176	-687.36420	26.00510	480.58005	726.57043	25.97717	583.62335	38.93231	1274.96411	-1009.25244	
910	9.090	-756.85736	-11.33046	-655.04657	813.97168	-12.84877	-632.96527	-687.30591	25.94640	480.47113	726.65607	25.86748	583.54547	38.91261	1275.15112	-1009.15820	
911	9.100	-756.90454	-11.21697	-655.28235	813.98157	-12.75360	-632.92279	-687.62122	26.20352	480.59299	726.66785	25.77370	583.55640	38.90468	1275.57874	-1008.89331	
912	9.110	-756.86224	-11.10174	-655.28436	813.79816	-12.50435	-632.62732	-687.67151	26.15773	480.59732	726.59534	25.54476	583.56433	39.09247	1275.74951	-1008.72803	
913	9.120	-756.93878	-10.95952	-654.99982	813.72662	-12.37019	-632.57837	-687.63977	25.97306	480.65295	726.45850	25.32629	583.63757	39.08950	1276.06079	-1008.57751	
914	9.130	-757.05786	-10.56342	-654.59875	813.74524	-12.21655	-632.50183	-687.66388	25.82706	480.69196	726.54517	25.23298	583.71497	39.08697	1276.46692	-1008.37976	
915	9.140	-756.81433	-10.42251	-654.66748	813.82251	-12.09676	-632.46399	-687.61505	25.71214	480.68210	726.68475	25.06923	583.77808	39.14098	1276.84119	-1008.27527	
916	9.150	-756.89294	-10.37598	-654.91388	813.82703	-11.91729	-632.41656	-687.63586	25.62358	480.67285	726.69629	24.89772	583.80017	39.12304	1277.01990	-1008.21307	
917	9.160	-756.93427	-10.26428	-654.98138	813.88684	-11.68672	-632.33496	-687.66437	25.37390	480.77289	726.71368	24.72885	583.78870	39.15413	1277.18213	-1007.89722	
918	9.170	-756.88824	-10.20124	-654.88092	813.88879	-11.54146	-632.27863	-687.60376	25.13981	480.91382	726.80682	24.58223	583.90399	39.18125	1277.32971	-1007.41785	
919	9.180	-756.88135	-9.99214	-654.62946	813.88135	-11.32026	-632.13153	-687.55865	24.96809	480.95377	726.81641	24.45383	584.07123	39.14380	1277.61340	-1006.80896	
920	9.190	-756.91071	-9.75894	-654.50977	813.87000	-10.98063	-632.05231	-687.59839	24.90371	480.92801	726.86578	24.28743	584.18170	39.17792	1278.09277	-1006.09668	
921	9.200	-756.97998	-9.35687	-654.54700	813.81152	-10.56876	-632.07306	-687.63116	24.86177	480.90158	726.86108	24.16689	584.18402	38.96500	1278.59753	-1005.71576	
922	9.210	-757.02704	-9.01125	-654.71100	813.69159	-10.37541	-632.10553	-687.72632	24.84341	480.94739	726.87781	24.08027	584.18402	38.99253	1278.93787	-1004.87067	
923	9.220	-757.06506	-8.80993	-654.72015	813.61676	-10.25397	-632.07495	-687.83881	24.64567	481.00778	726.69666	23.85587	584.17444	38.89535	1279.40198	-1003.96509	
924	9.230	-757.08099	-8.65790	-654.61932	813.45099	-10.08724	-632.06738	-687.98193	24.42038	481.13766	726.53583	23.60592	584.27704	38.86794	1279.65393	-1003.17816	
925	9.240	-757.31659	-8.36177	-654.58044	813.28271	-9.76842	-632.00818	-688.18329	24.26757	481.36880	726.25134	23.31187	584.33472	38.54385	1280.11743	-1002.58356	
926	9.250	-757.54700	-7.94021	-654.75098	813.18689	-9.38683	-631.90778	-688.37689	24.06125	481.52435	725.93738	22.95160	584.35956	38.40877	1280.50195	-1001.91394	
927	9.260	-757.72327	-7.51994	-654.87646	813.01611	-9.15112	-631.83789	-688.57275	23.94544	481.54547	725.78455	22.75408	584.44879	38.26399	1281.10559	-1001.39587	
928	9.270	-757.75690	-7.29893	-654.89099	812.87341	-8.85072	-631.74310	-688.69427	23.86991	481.48654	725.16278	22.16325	584.34302	38.12828	1281.54700	-1000.79999	
929	9.280	-757.92426	-7.02544	-654.80261	812.73883	-8.59843	-631.62128	-688.48450	23.16732	481.87076	725.20642	22.25558	584.56677	38.05947	1281.92383	-1000.18970	
930	9.290	-757.96741	-6.80944	-654.58759	812.79016	-8.58282	-631.99677	-688.61334	23.02564	481.92944	725.23450	22.03610	584.70374	37.98640	1282.26111	-999.65570	
931	9.300	-757.98187	-6.54150	-654.38281	812.71063	-8.28649	-631.94110	-688.72742	22.75290	482.01526	725.09570	21.81225	584.85693	37.95540	1282.53271	-999.25482	
932	9.310	-758.02466	-6.18460	-654.17725	812.51599	-7.80299	-631.49921	-688.87170	22.40889	482.07776	724.97479	21.66472	585.04895	37.82691	1283.05481	-998.75336	
933	9.320	-758.07190	-5.88046	-654.02374	812.38574	-7.53157	-631.37939	-689.04791	22.05320	482.14148	724.73029	21.48643	585.15295	37.64975	1283.71655	-998.37231	
934	9.330	-758.14777	-6.01804	-654.36023	812.15430	-7.11009	-631.25580	-689.26044	21.87895	482.25284	725.18823	21.16909	585.02332	37.35092	1284.24243	-997.88104	
935	9.340	-758.44159	-5.38199	-653.83295	811.97681	-6.75133	-631.20178	-689.06091	21.77437	482.40146	724.90094	20.79180	585.13281	37.01688	1284.63452	-997.36438	
936	9.350	-758.63037	-5.26082	-653.77905	811.82458	-6.37458	-631.11719	-689.45959	21.68346	482.35172	724.32666	20.59620	585.31964	36.71671	1285.12305	-996.64014	
937	9.360	-758.72589	-4.86294	-653.61169	811.70520	-6.08130	-631.13391	-689.68225	21.46595	482.43430	724.23877	20.34502	585.38995	36.65276	1285.61414	-995.75024	
938	9.370	-759.25171	-4.32108	-653.85107	811.56335	-5.86677	-631.00763	-689.89471	21.25295	482.50775	724.10895	20.16715	585.40546	36.70758	1286.22192	-994.60583	
939	9.380	-759.22430	-3.81835	-653.69812	811.44751	-5.55318	-631.06024	-690.05298	21.02015	482.58746	723.99139	19.94424	585.47992	36.69327	1286.76917	-993.87683	
940	9.390	-759.33252	-3.45802	-653.53131	811.27307	-5.13629	-630.90765	-690.16382	20.46502	482.71146	723.70599	19.65821	585.65100	36.19514	1287.13623	-993.00269	
941	9.400	-759.63190	-2.90156	-653.34924	810.99951	-4.80494	-630.85358	-690.27637	20.27185	482.81210	723.54919	19.39180	585.75751	35.86462	1287.56567	-992.10999	
942	9.410	-759.83472	-2.60269	-653.36603	810.89545	-4.43099	-630.64063	-690.45599	20.08143	482.98575	723.31842	18.97753	585.90436	35.87075	1288.27600	-991.00348	
943	9.420	-760.37103	-2.24794	-653.41876	810.79895	-4.05137	-630.52203	-690.59979	19.80449	483.07260	723.08490	18.54693	586.04431	35.99548	1289.08606	-990.34222	
944	9.430	-760.40308	-2.19233	-653.58734	810.39447	-3.72987	-630.59998	-690.78943	19.60386	483.08643	722.77472	18.43915	586.20831	35.57125	1289.52173	-989.59198	
945	9.440	-760.52313	-1.95480	-653.63092	810.47552	-3.59704	-630.87183	-691.15411	19.31988	483.08762	722.92419	18.14289	586.12482	35.34136	1290.11841	-988.75580	
946	9.450	-760.74084	-1.38477	-653.27405	809.85223	-2.93266	-630.43103	-691.44165	19.03830	483.14755	722.71838	17.83166	586.23096	35.02726	1290.61951	-988.06738	
947	9.460	-760.83429	-1.18100	-653.17908	809.71777	-2.45164	-630.46484	-691.26678	18.72241	483.33081	722.40271	17.48377	586.28815	34.97018	1291.38123	-987.19513	
948	9.470	-760.54041	-0.89442	-652.50732	809.65314	-2.01582	-630.36218	-691.52832	18.50351	483.38672	722.16736	17.09852	586.36761	34.69486	1292.04199	-986.54730	
